<svg width="15" height="14" viewBox="0 0 15 14" fill="none" xmlns="http://www.w3.org/2000/svg">
<path d="M12.3575 5.57714C12.3394 3.43901 14.1175 2.39981 14.1956 2.35203C13.1864 0.894756 11.6246 0.691693 11.078 0.673776C9.76846 0.53641 8.49499 1.45616 7.82821 1.45616C7.14942 1.45616 6.11623 0.691693 5.01094 0.70961C3.58729 0.7335 2.24774 1.55172 1.52089 2.82982C0.0131426 5.42783 1.13645 9.25018 2.58413 11.3525C3.31097 12.3797 4.15195 13.5324 5.26324 13.4906C6.34449 13.4488 6.75296 12.8038 8.05648 12.8038C9.35398 12.8038 9.73242 13.4906 10.8617 13.4667C12.0271 13.4488 12.7539 12.4335 13.4567 11.3943C14.2917 10.2177 14.6281 9.05309 14.6401 8.99336C14.6101 8.98142 12.3815 8.13333 12.3575 5.57714Z" fill="white"/>
</svg>
