<svg width="22" height="24" viewBox="0 0 22 24" fill="none" xmlns="http://www.w3.org/2000/svg">
<path d="M0.89472 0.667725C0.624406 0.936484 0.534302 1.38442 0.534302 1.92193V21.7205C0.534302 22.258 0.714511 22.706 0.984825 22.9747L1.07493 23.0643L12.2479 11.9556V11.7764L0.89472 0.667725Z" fill="url(#paint0_linear_1_74)"/>
<path d="M15.8536 15.724L12.1593 12.0509V11.7822L15.8536 8.10913L15.9437 8.19872L20.3588 10.7071C21.6203 11.4238 21.6203 12.5885 20.3588 13.3051L15.8536 15.724Z" fill="url(#paint1_linear_1_74)"/>
<path d="M15.9454 15.6298L12.161 11.8672L0.897949 23.0655C1.34847 23.5134 1.97921 23.5134 2.79015 23.1551L15.9454 15.6298Z" fill="url(#paint2_linear_1_74)"/>
<path d="M15.9454 8.10492L2.79015 0.669249C1.97921 0.221317 1.34847 0.310903 0.897949 0.758835L12.161 11.8675L15.9454 8.10492Z" fill="url(#paint3_linear_1_74)"/>
<path opacity="0.2" d="M15.8548 15.5388L2.78966 22.8849C2.06882 23.3328 1.43809 23.2432 0.987566 22.8849L0.897461 22.9745L0.987566 23.0641C1.43809 23.4224 2.06882 23.512 2.78966 23.0641L15.8548 15.5388Z" fill="white"/>
<path opacity="0.2" d="M0.895086 22.8863C0.624772 22.6176 0.534668 22.1696 0.534668 21.6321V21.7217C0.534668 22.2592 0.714877 22.7071 0.985191 22.9759V22.8863H0.895086ZM20.3577 13.0318L15.8525 15.5402L15.9426 15.6298L20.3577 13.1214C20.9884 12.7631 21.2587 12.3151 21.2587 11.8672C21.2587 12.3151 20.8983 12.6735 20.3577 13.0318Z" fill="white"/>
<path opacity="0.2" d="M2.78692 0.76088L20.3573 10.705C20.898 11.0633 21.2584 11.4217 21.2584 11.8696C21.2584 11.4217 20.9881 10.9737 20.3573 10.6154L2.78692 0.671294C1.52545 -0.0453974 0.534302 0.492121 0.534302 1.9255V2.01509C0.534302 0.671294 1.52545 0.0441889 2.78692 0.76088Z" fill="white"/>
<defs>
<linearGradient id="paint0_linear_1_74" x1="11.1666" y1="1.75172" x2="-3.86839" y2="16.8728" gradientUnits="userSpaceOnUse">
<stop stop-color="#00A0FF"/>
<stop offset="0.007" stop-color="#00A1FF"/>
<stop offset="0.26" stop-color="#00BEFF"/>
<stop offset="0.512" stop-color="#00D2FF"/>
<stop offset="0.76" stop-color="#00DFFF"/>
<stop offset="1" stop-color="#00E3FF"/>
</linearGradient>
<linearGradient id="paint1_linear_1_74" x1="22.0113" y1="11.8727" x2="0.208724" y2="11.8727" gradientUnits="userSpaceOnUse">
<stop stop-color="#FFE000"/>
<stop offset="0.409" stop-color="#FFBD00"/>
<stop offset="0.775" stop-color="#FFA500"/>
<stop offset="1" stop-color="#FF9C00"/>
</linearGradient>
<linearGradient id="paint2_linear_1_74" x1="13.8973" y1="13.9241" x2="-6.49039" y2="34.4298" gradientUnits="userSpaceOnUse">
<stop stop-color="#FF3A44"/>
<stop offset="1" stop-color="#C31162"/>
</linearGradient>
<linearGradient id="paint3_linear_1_74" x1="-1.898" y1="-5.89206" x2="7.20652" y2="3.26512" gradientUnits="userSpaceOnUse">
<stop stop-color="#32A071"/>
<stop offset="0.069" stop-color="#2DA771"/>
<stop offset="0.476" stop-color="#15CF74"/>
<stop offset="0.801" stop-color="#06E775"/>
<stop offset="1" stop-color="#00F076"/>
</linearGradient>
</defs>
</svg>
