<svg width="141" height="21" viewBox="0 0 141 21" fill="none" xmlns="http://www.w3.org/2000/svg">
<path d="M20.8306 8.98049L16.2156 13.4721L17.3045 19.821C17.349 20.1022 17.2379 20.376 17.0082 20.5462C16.8823 20.6424 16.7267 20.6868 16.5712 20.6868C16.4527 20.6868 16.3341 20.6572 16.223 20.6054L10.5191 17.6085L4.81513 20.6054C4.56327 20.7386 4.26696 20.7164 4.03732 20.5462C3.80768 20.3834 3.69657 20.1022 3.74101 19.821L4.82995 13.4721L0.222347 8.98049C0.0223383 8.7807 -0.0517389 8.49211 0.0371538 8.22572C0.126046 7.95933 0.355686 7.75954 0.637179 7.72254L7.01522 6.79758L9.8672 1.02582C10.1191 0.522643 10.9487 0.522643 11.1932 1.02582L14.0451 6.79758L20.4232 7.72254C20.7047 7.76694 20.9343 7.95933 21.0232 8.22572C21.1121 8.49211 21.038 8.7807 20.8306 8.98049Z" fill="#FAAF38"/>
<path d="M50.815 8.98049L46.2 13.4721L47.2889 19.821C47.3334 20.1022 47.2223 20.376 46.9926 20.5462C46.8667 20.6424 46.7111 20.6868 46.5556 20.6868C46.437 20.6868 46.3185 20.6572 46.2074 20.6054L40.5035 17.6085L34.7995 20.6054C34.5476 20.7386 34.2513 20.7164 34.0217 20.5462C33.7921 20.3834 33.6809 20.1022 33.7254 19.821L34.8143 13.4721L30.2067 8.98049C30.0067 8.7807 29.9326 8.49211 30.0215 8.22572C30.1104 7.95933 30.3401 7.75954 30.6216 7.72254L36.9996 6.79758L39.8516 1.02582C40.1034 0.522643 40.9331 0.522643 41.1776 1.02582L44.0295 6.79758L50.4076 7.72254C50.6891 7.76694 50.9187 7.95933 51.0076 8.22572C51.0965 8.49211 51.0224 8.7807 50.815 8.98049Z" fill="#FAAF38"/>
<path d="M80.7994 8.98049L76.1844 13.4721L77.2733 19.821C77.3177 20.1022 77.2066 20.376 76.977 20.5462C76.8511 20.6424 76.6955 20.6868 76.5399 20.6868C76.4214 20.6868 76.3029 20.6572 76.1918 20.6054L70.4878 17.6085L64.7839 20.6054C64.532 20.7386 64.2357 20.7164 64.0061 20.5462C63.7764 20.3834 63.6653 20.1022 63.7098 19.821L64.7987 13.4721L60.1911 8.98049C59.9911 8.7807 59.917 8.49211 60.0059 8.22572C60.0948 7.95933 60.3244 7.75954 60.6059 7.72254L66.984 6.79758L69.8359 1.02582C70.0878 0.522643 70.9175 0.522643 71.1619 1.02582L74.0139 6.79758L80.3919 7.72254C80.6734 7.76694 80.9031 7.95933 80.992 8.22572C81.0809 8.49211 81.0068 8.7807 80.7994 8.98049Z" fill="#FAAF38"/>
<path d="M110.784 8.98049L106.169 13.4721L107.258 19.821C107.302 20.1022 107.191 20.376 106.961 20.5462C106.835 20.6424 106.68 20.6868 106.524 20.6868C106.406 20.6868 106.287 20.6572 106.176 20.6054L100.472 17.6085L94.7683 20.6054C94.5164 20.7386 94.2201 20.7164 93.9904 20.5462C93.7608 20.3834 93.6497 20.1022 93.6941 19.821L94.7831 13.4721L90.1755 8.98049C89.9755 8.7807 89.9014 8.49211 89.9903 8.22572C90.0792 7.95933 90.3088 7.75954 90.5903 7.72254L96.9683 6.79758L99.8203 1.02582C100.072 0.522643 100.902 0.522643 101.146 1.02582L103.998 6.79758L110.376 7.72254C110.658 7.76694 110.887 7.95933 110.976 8.22572C111.065 8.49211 110.991 8.7807 110.784 8.98049Z" fill="#FAAF38"/>
<path opacity="0.9" d="M140.772 8.98049L136.157 13.4721L137.246 19.821C137.29 20.1022 137.179 20.376 136.95 20.5462C136.824 20.6424 136.668 20.6868 136.513 20.6868C136.394 20.6868 136.276 20.6572 136.164 20.6054L130.46 17.6085L124.757 20.6054C124.505 20.7386 124.208 20.7164 123.979 20.5462C123.749 20.3834 123.638 20.1022 123.682 19.821L124.771 13.4721L120.164 8.98049C119.964 8.7807 119.89 8.49211 119.979 8.22572C120.067 7.95933 120.297 7.75954 120.579 7.72254L126.957 6.79758L129.809 1.02582C130.06 0.522643 130.89 0.522643 131.135 1.02582L133.987 6.79758L140.365 7.72254C140.646 7.76694 140.876 7.95933 140.965 8.22572C141.054 8.49211 140.979 8.7807 140.772 8.98049Z" fill="#70758F" fill-opacity="0.3"/>
</svg>
