<svg width="16" height="13" viewBox="0 0 16 13" fill="none" xmlns="http://www.w3.org/2000/svg">
<path d="M15.2431 2.22372C14.7075 2.49197 14.1719 2.58139 13.547 2.67081C14.1719 2.31313 14.6182 1.77663 14.7967 1.06128C14.2612 1.41895 13.6363 1.59779 12.9222 1.77663C12.3866 1.24012 11.5832 0.882446 10.7798 0.882446C9.26232 0.882446 7.92335 2.22372 7.92335 3.83324C7.92335 4.1015 7.92335 4.28033 8.01261 4.45917C5.60246 4.36975 3.37084 3.20731 1.94261 1.41895C1.67481 1.86604 1.58555 2.31313 1.58555 2.93906C1.58555 3.92266 2.12114 4.81684 2.92452 5.35335C2.4782 5.35335 2.03187 5.17451 1.58555 4.99568C1.58555 6.42636 2.56746 7.5888 3.90643 7.85705C3.63864 7.94647 3.37084 7.94647 3.10305 7.94647C2.92452 7.94647 2.74599 7.94647 2.56746 7.85705C2.92452 9.01949 3.9957 9.91367 5.33467 9.91367C4.35276 10.7184 3.10305 11.1655 1.67481 11.1655C1.40702 11.1655 1.22849 11.1655 0.960693 11.1655C2.29967 11.9703 3.81717 12.5068 5.42393 12.5068C10.7798 12.5068 13.7256 8.03589 13.7256 4.19091C13.7256 4.1015 13.7256 3.92266 13.7256 3.83324C14.3504 3.38615 14.886 2.84964 15.2431 2.22372Z" fill="#FF6810"/>
</svg>
